<svg id="Calque_1" data-name="Calque 1" xmlns="http://www.w3.org/2000/svg" viewBox="0 0 500 500"><defs><style>.cls-1{fill:#00000;}</style></defs><title>-</title><path class="cls-1" d="M250.18,473.09q-87,0-173.95,0C31.45,473.07.54,441.82.11,397c-.17-18.18,2.57-35.26,13.5-50.17C28.41,326.6,48.42,316,73.56,315.93q176.18-.14,352.37,0c39.95,0,70.88,29.27,73.73,69.41,2,28.31-4.3,53.44-27.65,72-13.78,11-29.56,15.84-47.13,15.81Q337.53,473,250.18,473.09Zm183.46-97.59a19.28,19.28,0,0,0-19.26,18.72,19,19,0,0,0,38,.54A19.36,19.36,0,0,0,433.64,375.49Zm-364.46,0A19,19,0,0,0,50.4,394.56a18.61,18.61,0,0,0,18.9,18.79,19,19,0,0,0,18.92-18.92A19.26,19.26,0,0,0,69.18,375.5Z"/><path class="cls-1" d="M138.23,306.1c-26.27.81-48.67.58-73,.42,8-20.63,18.25-40.59,27.48-60.72q14.51-31.63,29-63.25L129,166.75c1.9-4.13,3.43-9.22,6.6-12.61,3.47-3.71,9.07-6.49,13.26-9.36L163.22,135c17.72-12.11,35.32-26.56,54.4-36.37-.44,22.63-7.45,46-14.93,67.36"/><path class="cls-1" d="M146.08,307.56c13.13-29.3,27-58.29,40-87.62,13.63-30.6,26.9-61.74,33.43-94.76,1.61-8.15,1.64-16.23,2.22-24.49.3-4.29.11-5.45,3.68-7.8A52.8,52.8,0,0,1,236.57,87a20.35,20.35,0,0,1,4.33-.81,45.28,45.28,0,0,1,0,6.42c-.32,3.56-.59,7.13-.92,10.69A222.76,222.76,0,0,1,236,130c-7.21,33.68-19.58,65.89-33.35,97.36-11.84,27.07-24.47,53.76-36.85,80.59"/><path class="cls-1" d="M334.86,166.52c-6,12.6-8.22,25.72-3.88,39.29,4.81,15.07,14.47,25.09,30.61,27.85a21.48,21.48,0,0,1,2.76.78,6.84,6.84,0,0,1,4.75,4.68c7.65,21.69,23.25,65,23.25,65l2.13,2.06s28.53,1.86,46,3.34c.41.11.49-.49.49-.49s-3.49-15-7.43-27.79q-8.62-28-17-56.07a4.46,4.46,0,0,1,.17-3.15,84.15,84.15,0,0,1,6.12-9.65c9.23-12,11.83-25,6.63-39.31-6-16.61-17.73-27.11-34.72-31.72-3.12-.85-6.35-1.3-9.54-1.91-2.35-.45-4.56-.25-6.46,1.88,2.27,4.06,4.6,8.3,7,12.51q3.16,5.58,6.41,11.11a16.09,16.09,0,0,1-.44,18c-5.3,8.13-13.23,12.55-22.67,13.86-6.87,1-12-2.24-15.63-8.2-5-8.26-10.23-16.39-15.36-24.58"/><path class="cls-1" d="M300.4,260.8c-3.35,2.72-5.56,2.65-8.64-.18-6.8-6.25-13.64-12.47-20.39-18.78-6.4-6-12.71-12.05-19-18.1-2.74-2.61-2.82-5.34-.24-8.12q8-8.56,16-17.07c2.74-2.91,5.45-3,8.37-.25l38.82,36.28c3.05,2.86,3.35,4.34,1.6,8.12l12.34,11.55Q342.57,266.77,356,279.3c.56.52,11,11.05,11,11.05L374,307s-25.54.43-26,0c-10.16-9.45-17.24-17.89-27.38-27.36l-19.2-18C301.12,261.39,300.79,261.14,300.4,260.8Z"/></svg>